<mxfile host="app.diagrams.net" agent="Mozilla/5.0 (X11; Linux x86_64) AppleWebKit/537.36 (KHTML, like Gecko) Chrome/131.0.0.0 Safari/537.36" version="26.0.4">
  <diagram id="C5RBs43oDa-KdzZeNtuy" name="Page-1">
    <mxGraphModel dx="752" dy="1079" grid="1" gridSize="10" guides="1" tooltips="1" connect="1" arrows="1" fold="1" page="1" pageScale="1" pageWidth="827" pageHeight="1169" math="0" shadow="0">
      <root>
        <mxCell id="WIyWlLk6GJQsqaUBKTNV-0" />
        <mxCell id="WIyWlLk6GJQsqaUBKTNV-1" parent="WIyWlLk6GJQsqaUBKTNV-0" />
        <mxCell id="7N2SITn1ocIODTC8e36q-17" value="" style="edgeStyle=orthogonalEdgeStyle;rounded=0;orthogonalLoop=1;jettySize=auto;html=1;" edge="1" parent="WIyWlLk6GJQsqaUBKTNV-1" source="7N2SITn1ocIODTC8e36q-2" target="7N2SITn1ocIODTC8e36q-16">
          <mxGeometry relative="1" as="geometry" />
        </mxCell>
        <mxCell id="7N2SITn1ocIODTC8e36q-2" value="목표 거리 도달까지" style="swimlane;whiteSpace=wrap;html=1;" vertex="1" parent="WIyWlLk6GJQsqaUBKTNV-1">
          <mxGeometry x="235" y="610" width="340" height="210" as="geometry" />
        </mxCell>
        <mxCell id="7N2SITn1ocIODTC8e36q-49" style="edgeStyle=orthogonalEdgeStyle;rounded=0;orthogonalLoop=1;jettySize=auto;html=1;exitX=0.5;exitY=1;exitDx=0;exitDy=0;" edge="1" parent="7N2SITn1ocIODTC8e36q-2" source="7N2SITn1ocIODTC8e36q-3" target="7N2SITn1ocIODTC8e36q-41">
          <mxGeometry relative="1" as="geometry" />
        </mxCell>
        <mxCell id="7N2SITn1ocIODTC8e36q-3" value="자율주행 가능?" style="rhombus;whiteSpace=wrap;html=1;shadow=0;fontFamily=Helvetica;fontSize=12;align=center;strokeWidth=1;spacing=6;spacingTop=-4;" vertex="1" parent="7N2SITn1ocIODTC8e36q-2">
          <mxGeometry x="55" y="40" width="130" height="80" as="geometry" />
        </mxCell>
        <mxCell id="7N2SITn1ocIODTC8e36q-8" value="&lt;div&gt;&amp;nbsp;&lt;div&gt;긴급 정지&lt;/div&gt;&lt;/div&gt;" style="whiteSpace=wrap;html=1;shadow=0;strokeWidth=1;spacing=6;spacingTop=-4;" vertex="1" parent="7N2SITn1ocIODTC8e36q-2">
          <mxGeometry x="215" y="60" width="110" height="40" as="geometry" />
        </mxCell>
        <mxCell id="7N2SITn1ocIODTC8e36q-9" value="" style="edgeStyle=orthogonalEdgeStyle;rounded=0;orthogonalLoop=1;jettySize=auto;html=1;" edge="1" parent="7N2SITn1ocIODTC8e36q-2" source="7N2SITn1ocIODTC8e36q-3" target="7N2SITn1ocIODTC8e36q-8">
          <mxGeometry relative="1" as="geometry" />
        </mxCell>
        <mxCell id="7N2SITn1ocIODTC8e36q-41" value="주행" style="whiteSpace=wrap;html=1;shadow=0;strokeWidth=1;spacing=6;spacingTop=-4;" vertex="1" parent="7N2SITn1ocIODTC8e36q-2">
          <mxGeometry x="65" y="150" width="110" height="47.5" as="geometry" />
        </mxCell>
        <mxCell id="7N2SITn1ocIODTC8e36q-11" style="edgeStyle=orthogonalEdgeStyle;rounded=0;orthogonalLoop=1;jettySize=auto;html=1;exitX=0.5;exitY=1;exitDx=0;exitDy=0;entryX=0.5;entryY=0;entryDx=0;entryDy=0;" edge="1" parent="WIyWlLk6GJQsqaUBKTNV-1" source="7N2SITn1ocIODTC8e36q-10" target="7N2SITn1ocIODTC8e36q-28">
          <mxGeometry relative="1" as="geometry" />
        </mxCell>
        <mxCell id="7N2SITn1ocIODTC8e36q-10" value="출발 플레그 받음?" style="rhombus;whiteSpace=wrap;html=1;shadow=0;fontFamily=Helvetica;fontSize=12;align=center;strokeWidth=1;spacing=6;spacingTop=-4;" vertex="1" parent="WIyWlLk6GJQsqaUBKTNV-1">
          <mxGeometry x="310" y="370" width="190" height="80" as="geometry" />
        </mxCell>
        <mxCell id="7N2SITn1ocIODTC8e36q-15" style="edgeStyle=orthogonalEdgeStyle;rounded=0;orthogonalLoop=1;jettySize=auto;html=1;entryX=0.5;entryY=0;entryDx=0;entryDy=0;" edge="1" parent="WIyWlLk6GJQsqaUBKTNV-1" source="7N2SITn1ocIODTC8e36q-13" target="7N2SITn1ocIODTC8e36q-10">
          <mxGeometry relative="1" as="geometry" />
        </mxCell>
        <mxCell id="7N2SITn1ocIODTC8e36q-13" value="목표거리 받음?" style="rhombus;whiteSpace=wrap;html=1;shadow=0;fontFamily=Helvetica;fontSize=12;align=center;strokeWidth=1;spacing=6;spacingTop=-4;" vertex="1" parent="WIyWlLk6GJQsqaUBKTNV-1">
          <mxGeometry x="306" y="260" width="198" height="80" as="geometry" />
        </mxCell>
        <mxCell id="7N2SITn1ocIODTC8e36q-40" style="edgeStyle=orthogonalEdgeStyle;rounded=0;orthogonalLoop=1;jettySize=auto;html=1;exitX=0.5;exitY=1;exitDx=0;exitDy=0;entryX=0.5;entryY=0;entryDx=0;entryDy=0;" edge="1" parent="WIyWlLk6GJQsqaUBKTNV-1" source="7N2SITn1ocIODTC8e36q-16" target="7N2SITn1ocIODTC8e36q-37">
          <mxGeometry relative="1" as="geometry" />
        </mxCell>
        <mxCell id="7N2SITn1ocIODTC8e36q-16" value="정지 및 /&lt;span class=&quot;notion-enable-hover&quot; data-token-index=&quot;1&quot;&gt;도착 완료 토픽&lt;/span&gt; pub" style="whiteSpace=wrap;html=1;fontStyle=1;startSize=23;" vertex="1" parent="WIyWlLk6GJQsqaUBKTNV-1">
          <mxGeometry x="317.75" y="860" width="174.5" height="60" as="geometry" />
        </mxCell>
        <mxCell id="7N2SITn1ocIODTC8e36q-30" style="edgeStyle=orthogonalEdgeStyle;rounded=0;orthogonalLoop=1;jettySize=auto;html=1;exitX=0.5;exitY=1;exitDx=0;exitDy=0;entryX=0.5;entryY=0;entryDx=0;entryDy=0;" edge="1" parent="WIyWlLk6GJQsqaUBKTNV-1" source="7N2SITn1ocIODTC8e36q-28" target="7N2SITn1ocIODTC8e36q-2">
          <mxGeometry relative="1" as="geometry" />
        </mxCell>
        <mxCell id="7N2SITn1ocIODTC8e36q-28" value="자율주행 가능?" style="rhombus;whiteSpace=wrap;html=1;shadow=0;fontFamily=Helvetica;fontSize=12;align=center;strokeWidth=1;spacing=6;spacingTop=-4;" vertex="1" parent="WIyWlLk6GJQsqaUBKTNV-1">
          <mxGeometry x="317" y="490" width="177" height="80" as="geometry" />
        </mxCell>
        <mxCell id="7N2SITn1ocIODTC8e36q-32" value="목표 거리 도달까지" style="swimlane;whiteSpace=wrap;html=1;" vertex="1" parent="WIyWlLk6GJQsqaUBKTNV-1">
          <mxGeometry x="235.5" y="1180" width="340" height="210" as="geometry" />
        </mxCell>
        <mxCell id="7N2SITn1ocIODTC8e36q-51" style="edgeStyle=orthogonalEdgeStyle;rounded=0;orthogonalLoop=1;jettySize=auto;html=1;exitX=0.5;exitY=1;exitDx=0;exitDy=0;" edge="1" parent="7N2SITn1ocIODTC8e36q-32" source="7N2SITn1ocIODTC8e36q-52" target="7N2SITn1ocIODTC8e36q-55">
          <mxGeometry relative="1" as="geometry" />
        </mxCell>
        <mxCell id="7N2SITn1ocIODTC8e36q-52" value="자율주행 가능?" style="rhombus;whiteSpace=wrap;html=1;shadow=0;fontFamily=Helvetica;fontSize=12;align=center;strokeWidth=1;spacing=6;spacingTop=-4;" vertex="1" parent="7N2SITn1ocIODTC8e36q-32">
          <mxGeometry x="43.5" y="40" width="130" height="80" as="geometry" />
        </mxCell>
        <mxCell id="7N2SITn1ocIODTC8e36q-53" value="&lt;div&gt;&amp;nbsp;&lt;div&gt;긴급 정지&lt;/div&gt;&lt;/div&gt;" style="whiteSpace=wrap;html=1;shadow=0;strokeWidth=1;spacing=6;spacingTop=-4;" vertex="1" parent="7N2SITn1ocIODTC8e36q-32">
          <mxGeometry x="203.5" y="60" width="110" height="40" as="geometry" />
        </mxCell>
        <mxCell id="7N2SITn1ocIODTC8e36q-54" value="" style="edgeStyle=orthogonalEdgeStyle;rounded=0;orthogonalLoop=1;jettySize=auto;html=1;" edge="1" parent="7N2SITn1ocIODTC8e36q-32" source="7N2SITn1ocIODTC8e36q-52" target="7N2SITn1ocIODTC8e36q-53">
          <mxGeometry relative="1" as="geometry" />
        </mxCell>
        <mxCell id="7N2SITn1ocIODTC8e36q-55" value="주행" style="whiteSpace=wrap;html=1;shadow=0;strokeWidth=1;spacing=6;spacingTop=-4;" vertex="1" parent="7N2SITn1ocIODTC8e36q-32">
          <mxGeometry x="53.5" y="150" width="110" height="47.5" as="geometry" />
        </mxCell>
        <mxCell id="7N2SITn1ocIODTC8e36q-36" style="edgeStyle=orthogonalEdgeStyle;rounded=0;orthogonalLoop=1;jettySize=auto;html=1;exitX=0.5;exitY=1;exitDx=0;exitDy=0;entryX=0.5;entryY=0;entryDx=0;entryDy=0;" edge="1" parent="WIyWlLk6GJQsqaUBKTNV-1" source="7N2SITn1ocIODTC8e36q-37" target="7N2SITn1ocIODTC8e36q-39">
          <mxGeometry relative="1" as="geometry" />
        </mxCell>
        <mxCell id="7N2SITn1ocIODTC8e36q-37" value="복귀 플레그 받음?" style="rhombus;whiteSpace=wrap;html=1;shadow=0;fontFamily=Helvetica;fontSize=12;align=center;strokeWidth=1;spacing=6;spacingTop=-4;" vertex="1" parent="WIyWlLk6GJQsqaUBKTNV-1">
          <mxGeometry x="310" y="950" width="190" height="72" as="geometry" />
        </mxCell>
        <mxCell id="7N2SITn1ocIODTC8e36q-38" style="edgeStyle=orthogonalEdgeStyle;rounded=0;orthogonalLoop=1;jettySize=auto;html=1;exitX=0.5;exitY=1;exitDx=0;exitDy=0;entryX=0.5;entryY=0;entryDx=0;entryDy=0;" edge="1" parent="WIyWlLk6GJQsqaUBKTNV-1" source="7N2SITn1ocIODTC8e36q-39" target="7N2SITn1ocIODTC8e36q-32">
          <mxGeometry relative="1" as="geometry" />
        </mxCell>
        <mxCell id="7N2SITn1ocIODTC8e36q-39" value="자율주행 가능?" style="rhombus;whiteSpace=wrap;html=1;shadow=0;fontFamily=Helvetica;fontSize=12;align=center;strokeWidth=1;spacing=6;spacingTop=-4;" vertex="1" parent="WIyWlLk6GJQsqaUBKTNV-1">
          <mxGeometry x="314.13" y="1050" width="181.75" height="80" as="geometry" />
        </mxCell>
      </root>
    </mxGraphModel>
  </diagram>
</mxfile>
